<svg xmlns="http://www.w3.org/2000/svg" xmlns:xlink="http://www.w3.org/1999/xlink" version="1.1" x="0px" y="0px" viewBox="0 0 100 100" enable-background="new 0 0 100 100" xml:space="preserve"><path d="M49.6,10.8c-21.3,0-38.7,17.4-38.7,38.7c0,11.8,5.3,22.4,13.7,29.5c0.1,0.1,0.1,0.1,0.2,0.2c6.7,5.6,15.4,9,24.8,9  c9.4,0,18-3.4,24.8-9c0.2,0,0.4-0.2,0.5-0.4c8.2-7.1,13.5-17.6,13.5-29.3C88.3,28.2,71,10.8,49.6,10.8z M49.6,87  c-9.1,0-17.4-3.3-23.9-8.6c0.1-2,1.2-14.3,14.3-20.6c2.6,2.2,5.9,3.6,9.6,3.6c3.7,0,7.1-1.4,9.7-3.7C72.2,63.9,73.5,76,73.6,78.3  C67.1,83.7,58.8,87,49.6,87z M36.2,46.8c0-7.4,6-13.4,13.4-13.4s13.4,6,13.4,13.4c0,7.4-6,13.4-13.4,13.4S36.2,54.2,36.2,46.8z   M74.8,77.3c-0.4-3.8-2.7-14.5-14.6-20.4c2.5-2.6,4.1-6.2,4.1-10.1c0-8.1-6.6-14.7-14.7-14.7c-8.1,0-14.7,6.6-14.7,14.7  c0,3.9,1.6,7.5,4.1,10.1c-11.9,5.9-14.1,16.7-14.5,20.5c-7.6-6.9-12.4-16.8-12.4-27.8c0-20.7,16.8-37.5,37.5-37.5  s37.5,16.8,37.5,37.5C87.1,60.5,82.3,70.4,74.8,77.3z"></path></svg>